<svg xmlns="http://www.w3.org/2000/svg" xmlns:xlink="http://www.w3.org/1999/xlink" width="500" zoomAndPan="magnify" viewBox="0 0 375 374.999991" height="500" preserveAspectRatio="xMidYMid meet" version="1.0"><defs><g/><clipPath id="e4657156bc"><path d="M 144 7.390625 L 192 7.390625 L 192 56 L 144 56 Z M 144 7.390625 " clip-rule="nonzero"/></clipPath><clipPath id="41194da165"><path d="M 183 7.390625 L 231 7.390625 L 231 56 L 183 56 Z M 183 7.390625 " clip-rule="nonzero"/></clipPath><clipPath id="4e65187237"><path d="M 92 271 L 106 271 L 106 284.140625 L 92 284.140625 Z M 92 271 " clip-rule="nonzero"/></clipPath><clipPath id="40c75f6998"><path d="M 269 271 L 283 271 L 283 284.140625 L 269 284.140625 Z M 269 271 " clip-rule="nonzero"/></clipPath><clipPath id="d37d9108b8"><path d="M 96 275 L 279 275 L 279 284.140625 L 96 284.140625 Z M 96 275 " clip-rule="nonzero"/></clipPath><clipPath id="6b574dcbba"><path d="M 88.007812 197 L 115 197 L 115 224 L 88.007812 224 Z M 88.007812 197 " clip-rule="nonzero"/></clipPath><clipPath id="6e111fa479"><path d="M 88.007812 232 L 123 232 L 123 268 L 88.007812 268 Z M 88.007812 232 " clip-rule="nonzero"/></clipPath><clipPath id="f0348eb1fa"><path d="M 88.007812 215 L 97 215 L 97 242 L 88.007812 242 Z M 88.007812 215 " clip-rule="nonzero"/></clipPath><clipPath id="9324e48060"><path d="M 260 197 L 286.757812 197 L 286.757812 224 L 260 224 Z M 260 197 " clip-rule="nonzero"/></clipPath><clipPath id="af4b068e88"><path d="M 252 232 L 286.757812 232 L 286.757812 268 L 252 268 Z M 252 232 " clip-rule="nonzero"/></clipPath><clipPath id="78a0cfbef0"><path d="M 278 215 L 286.757812 215 L 286.757812 242 L 278 242 Z M 278 215 " clip-rule="nonzero"/></clipPath></defs><rect x="-37.5" width="450" fill="#ffffff" y="-37.499999" height="449.999989" fill-opacity="1"/><rect x="-37.5" width="450" fill="#151719" y="-37.499999" height="449.999989" fill-opacity="1"/><path fill="#ffde59" d="M 187.496094 193.546875 C 149.394531 193.546875 118.390625 162.542969 118.390625 124.441406 C 118.390625 122.058594 120.324219 120.125 122.710938 120.125 C 125.097656 120.125 127.03125 122.058594 127.03125 124.441406 C 127.03125 157.785156 154.152344 184.90625 187.496094 184.90625 C 220.835938 184.90625 247.960938 157.785156 247.960938 124.441406 C 247.960938 122.058594 249.890625 120.125 252.277344 120.125 C 254.667969 120.125 256.597656 122.058594 256.597656 124.441406 C 256.597656 162.542969 225.597656 193.546875 187.496094 193.546875 Z M 187.496094 193.546875 " fill-opacity="1" fill-rule="nonzero"/><path fill="#ffde59" d="M 122.710938 128.757812 C 120.324219 128.757812 118.390625 126.820312 118.390625 124.4375 L 118.390625 94.199219 C 118.390625 91.816406 120.324219 89.882812 122.710938 89.882812 C 125.097656 89.882812 127.03125 91.816406 127.03125 94.199219 L 127.03125 124.441406 C 127.03125 126.828125 125.097656 128.757812 122.710938 128.757812 Z M 122.710938 128.757812 " fill-opacity="1" fill-rule="nonzero"/><path fill="#ffde59" d="M 252.277344 128.757812 C 249.890625 128.757812 247.960938 126.820312 247.960938 124.4375 L 247.960938 94.199219 C 247.960938 91.816406 249.890625 89.882812 252.277344 89.882812 C 254.667969 89.882812 256.597656 91.816406 256.597656 94.199219 L 256.597656 124.441406 C 256.597656 126.828125 254.667969 128.757812 252.277344 128.757812 Z M 252.277344 128.757812 " fill-opacity="1" fill-rule="nonzero"/><path fill="#ffde59" d="M 200.453125 171.917969 C 199.347656 171.917969 198.242188 171.492188 197.398438 170.652344 L 194.34375 167.597656 L 180.644531 167.597656 L 177.589844 170.652344 C 175.902344 172.339844 173.171875 172.339844 171.484375 170.652344 C 169.796875 168.960938 169.796875 166.230469 171.484375 164.542969 L 175.804688 160.226562 C 176.609375 159.417969 177.707031 158.960938 178.855469 158.960938 L 196.132812 158.960938 C 197.28125 158.960938 198.378906 159.414062 199.1875 160.226562 L 203.503906 164.542969 C 205.195312 166.230469 205.195312 168.960938 203.503906 170.652344 C 202.664062 171.492188 201.558594 171.917969 200.453125 171.917969 Z M 200.453125 171.917969 " fill-opacity="1" fill-rule="nonzero"/><path fill="#ffde59" d="M 174.539062 171.917969 C 150.722656 171.917969 131.347656 152.542969 131.347656 128.726562 C 131.347656 126.34375 133.277344 124.40625 135.667969 124.40625 C 138.054688 124.40625 139.988281 126.34375 139.988281 128.726562 C 139.988281 147.78125 155.488281 163.277344 174.539062 163.277344 C 176.925781 163.277344 178.855469 165.207031 178.855469 167.597656 C 178.855469 169.984375 176.925781 171.917969 174.539062 171.917969 Z M 174.539062 171.917969 " fill-opacity="1" fill-rule="nonzero"/><path fill="#ffde59" d="M 135.667969 133.046875 C 133.277344 133.046875 131.347656 131.109375 131.347656 128.726562 C 131.347656 123.960938 127.472656 120.089844 122.710938 120.089844 C 120.324219 120.089844 118.390625 118.152344 118.390625 115.769531 C 118.390625 113.386719 120.324219 111.449219 122.710938 111.449219 C 132.238281 111.449219 139.988281 119.199219 139.988281 128.726562 C 139.988281 131.109375 138.054688 133.046875 135.667969 133.046875 Z M 135.667969 133.046875 " fill-opacity="1" fill-rule="nonzero"/><path fill="#ffde59" d="M 200.453125 171.917969 C 198.0625 171.917969 196.132812 169.984375 196.132812 167.597656 C 196.132812 165.207031 198.0625 163.277344 200.453125 163.277344 C 219.503906 163.277344 235.003906 147.777344 235.003906 128.726562 C 235.003906 126.34375 236.933594 124.40625 239.320312 124.40625 C 241.710938 124.40625 243.640625 126.34375 243.640625 128.726562 C 243.640625 152.542969 224.265625 171.917969 200.453125 171.917969 Z M 200.453125 171.917969 " fill-opacity="1" fill-rule="nonzero"/><path fill="#ffde59" d="M 239.320312 133.046875 C 236.933594 133.046875 235.003906 131.109375 235.003906 128.726562 C 235.003906 119.199219 242.75 111.449219 252.277344 111.449219 C 254.667969 111.449219 256.597656 113.386719 256.597656 115.769531 C 256.597656 118.152344 254.667969 120.089844 252.277344 120.089844 C 247.515625 120.089844 243.640625 123.960938 243.640625 128.726562 C 243.640625 131.109375 241.710938 133.046875 239.320312 133.046875 Z M 239.320312 133.046875 " fill-opacity="1" fill-rule="nonzero"/><path fill="#ffde59" d="M 252.277344 102.839844 L 122.710938 102.839844 C 120.324219 102.839844 118.390625 100.902344 118.390625 98.519531 C 118.390625 96.136719 120.324219 94.199219 122.710938 94.199219 L 252.277344 94.199219 C 254.667969 94.199219 256.597656 96.136719 256.597656 98.519531 C 256.597656 100.902344 254.667969 102.839844 252.277344 102.839844 Z M 252.277344 102.839844 " fill-opacity="1" fill-rule="nonzero"/><path fill="#ffde59" d="M 252.277344 89.882812 L 122.710938 89.882812 C 120.324219 89.882812 118.390625 87.949219 118.390625 85.5625 C 118.390625 83.179688 120.324219 81.246094 122.710938 81.246094 L 252.277344 81.246094 C 254.667969 81.246094 256.597656 83.179688 256.597656 85.5625 C 256.597656 87.949219 254.667969 89.882812 252.277344 89.882812 Z M 252.277344 89.882812 " fill-opacity="1" fill-rule="nonzero"/><path fill="#ffde59" d="M 252.277344 98.519531 C 249.890625 98.519531 247.960938 96.585938 247.960938 94.199219 L 247.960938 38.054688 C 247.960938 35.671875 249.890625 33.734375 252.277344 33.734375 C 254.667969 33.734375 256.597656 35.671875 256.597656 38.054688 L 256.597656 94.199219 C 256.597656 96.585938 254.667969 98.519531 252.277344 98.519531 Z M 252.277344 98.519531 " fill-opacity="1" fill-rule="nonzero"/><path fill="#ffde59" d="M 122.710938 98.519531 C 120.324219 98.519531 118.390625 96.585938 118.390625 94.199219 L 118.390625 38.054688 C 118.390625 35.671875 120.324219 33.734375 122.710938 33.734375 C 125.097656 33.734375 127.03125 35.671875 127.03125 38.054688 L 127.03125 94.199219 C 127.03125 96.585938 125.097656 98.519531 122.710938 98.519531 Z M 122.710938 98.519531 " fill-opacity="1" fill-rule="nonzero"/><path fill="#ffde59" d="M 148.621094 55.332031 C 147.972656 55.332031 147.3125 55.183594 146.695312 54.878906 L 120.78125 41.921875 C 118.648438 40.855469 117.78125 38.257812 118.847656 36.125 C 119.921875 33.992188 122.511719 33.128906 124.644531 34.195312 L 150.558594 47.152344 C 152.691406 48.21875 153.554688 50.8125 152.488281 52.945312 C 151.730469 54.457031 150.203125 55.332031 148.621094 55.332031 Z M 148.621094 55.332031 " fill-opacity="1" fill-rule="nonzero"/><path fill="#ffde59" d="M 226.371094 55.332031 C 224.785156 55.332031 223.261719 54.457031 222.5 52.941406 C 221.433594 50.808594 222.296875 48.214844 224.429688 47.144531 L 250.34375 34.191406 C 252.476562 33.121094 255.070312 33.988281 256.140625 36.121094 C 257.207031 38.253906 256.34375 40.847656 254.210938 41.917969 L 228.296875 54.871094 C 227.679688 55.183594 227.015625 55.332031 226.371094 55.332031 Z M 226.371094 55.332031 " fill-opacity="1" fill-rule="nonzero"/><g clip-path="url(#e4657156bc)"><path fill="#ffde59" d="M 148.625 55.332031 C 147.519531 55.332031 146.414062 54.90625 145.570312 54.066406 C 143.882812 52.375 143.882812 49.648438 145.570312 47.957031 L 184.441406 9.085938 C 186.128906 7.398438 188.859375 7.398438 190.546875 9.085938 C 192.238281 10.777344 192.238281 13.507812 190.546875 15.195312 L 151.679688 54.066406 C 150.835938 54.90625 149.730469 55.332031 148.625 55.332031 Z M 148.625 55.332031 " fill-opacity="1" fill-rule="nonzero"/></g><g clip-path="url(#41194da165)"><path fill="#ffde59" d="M 226.363281 55.332031 C 225.257812 55.332031 224.152344 54.90625 223.3125 54.066406 L 184.441406 15.195312 C 182.753906 13.507812 182.753906 10.777344 184.441406 9.085938 C 186.128906 7.398438 188.859375 7.398438 190.546875 9.085938 L 229.417969 47.957031 C 231.105469 49.648438 231.105469 52.375 229.417969 54.066406 C 228.578125 54.90625 227.472656 55.332031 226.363281 55.332031 Z M 226.363281 55.332031 " fill-opacity="1" fill-rule="nonzero"/></g><path fill="#ffde59" d="M 191.8125 72.605469 L 183.175781 72.605469 C 181.539062 72.605469 180.042969 71.683594 179.308594 70.21875 L 174.992188 61.582031 C 174.695312 60.984375 174.539062 60.320312 174.539062 59.648438 L 174.539062 55.332031 C 174.539062 54.660156 174.695312 53.996094 174.992188 53.398438 L 179.308594 44.761719 C 180.042969 43.296875 181.539062 42.375 183.175781 42.375 L 191.8125 42.375 C 193.449219 42.375 194.945312 43.296875 195.679688 44.761719 L 200 53.398438 C 200.296875 53.996094 200.453125 54.660156 200.453125 55.332031 L 200.453125 59.648438 C 200.453125 60.320312 200.296875 60.984375 200 61.582031 L 195.679688 70.21875 C 194.945312 71.683594 193.449219 72.605469 191.8125 72.605469 Z M 185.84375 63.96875 L 189.144531 63.96875 L 191.8125 58.628906 L 191.8125 56.351562 L 189.144531 51.011719 L 185.84375 51.011719 L 183.175781 56.351562 L 183.175781 58.628906 Z M 185.84375 63.96875 " fill-opacity="1" fill-rule="nonzero"/><path fill="#ffde59" d="M 252.410156 29.417969 C 250.019531 29.417969 248.066406 27.480469 248.066406 25.097656 C 248.066406 22.714844 249.976562 20.777344 252.359375 20.777344 L 252.410156 20.777344 C 254.792969 20.777344 256.726562 22.714844 256.726562 25.097656 C 256.726562 27.480469 254.792969 29.417969 252.410156 29.417969 Z M 252.410156 29.417969 " fill-opacity="1" fill-rule="nonzero"/><path fill="#ffde59" d="M 122.839844 29.417969 C 120.453125 29.417969 118.5 27.480469 118.5 25.097656 C 118.5 22.714844 120.410156 20.777344 122.792969 20.777344 L 122.839844 20.777344 C 125.222656 20.777344 127.160156 22.714844 127.160156 25.097656 C 127.160156 27.480469 125.222656 29.417969 122.839844 29.417969 Z M 122.839844 29.417969 " fill-opacity="1" fill-rule="nonzero"/><path fill="#ffde59" d="M 96.796875 279.914062 C 94.410156 279.914062 92.476562 277.980469 92.476562 275.597656 L 92.488281 251.109375 C 92.488281 248.71875 94.421875 246.789062 96.804688 246.789062 C 99.195312 246.789062 101.125 248.722656 101.125 251.109375 L 101.117188 275.597656 C 101.117188 277.984375 99.179688 279.914062 96.796875 279.914062 Z M 96.796875 279.914062 " fill-opacity="1" fill-rule="nonzero"/><g clip-path="url(#4e65187237)"><path fill="#ffde59" d="M 101.117188 284.234375 C 96.351562 284.234375 92.476562 280.359375 92.476562 275.597656 C 92.476562 273.207031 94.410156 271.277344 96.796875 271.277344 C 99.183594 271.277344 101.117188 273.207031 101.117188 275.597656 L 101.117188 275.605469 C 103.503906 275.605469 105.433594 277.53125 105.433594 279.917969 C 105.433594 282.304688 103.503906 284.234375 101.117188 284.234375 Z M 101.117188 284.234375 " fill-opacity="1" fill-rule="nonzero"/></g><g clip-path="url(#40c75f6998)"><path fill="#ffde59" d="M 273.875 284.234375 C 271.484375 284.234375 269.554688 282.304688 269.554688 279.914062 C 269.554688 277.527344 271.484375 275.597656 273.875 275.597656 L 273.882812 275.597656 C 273.882812 273.207031 275.808594 271.277344 278.195312 271.277344 C 280.582031 271.277344 282.511719 273.207031 282.511719 275.597656 C 282.511719 280.359375 278.636719 284.234375 273.875 284.234375 Z M 273.875 284.234375 " fill-opacity="1" fill-rule="nonzero"/></g><path fill="#ffde59" d="M 278.191406 279.914062 C 275.804688 279.914062 273.875 277.984375 273.875 275.597656 L 273.875 251.089844 C 273.875 248.703125 275.804688 246.773438 278.191406 246.773438 C 280.582031 246.773438 282.511719 248.703125 282.511719 251.089844 L 282.511719 275.597656 C 282.511719 277.984375 280.582031 279.914062 278.191406 279.914062 Z M 278.191406 279.914062 " fill-opacity="1" fill-rule="nonzero"/><g clip-path="url(#d37d9108b8)"><path fill="#ffde59" d="M 273.875 284.234375 L 101.117188 284.234375 C 98.726562 284.234375 96.796875 282.304688 96.796875 279.914062 C 96.796875 277.527344 98.726562 275.597656 101.117188 275.597656 L 273.875 275.597656 C 276.261719 275.597656 278.191406 277.527344 278.191406 279.914062 C 278.191406 282.304688 276.261719 284.234375 273.875 284.234375 Z M 273.875 284.234375 " fill-opacity="1" fill-rule="nonzero"/></g><path fill="#ffde59" d="M 157.261719 210.871094 C 154.875 210.871094 152.941406 208.941406 152.941406 206.554688 L 152.941406 181.796875 C 152.941406 179.410156 154.875 177.480469 157.261719 177.480469 C 159.652344 177.480469 161.582031 179.410156 161.582031 181.796875 L 161.582031 206.554688 C 161.582031 208.9375 159.652344 210.871094 157.261719 210.871094 Z M 157.261719 210.871094 " fill-opacity="1" fill-rule="nonzero"/><path fill="#ffde59" d="M 174.539062 210.863281 L 157.261719 210.863281 C 154.875 210.863281 152.941406 208.933594 152.941406 206.546875 C 152.941406 204.15625 154.875 202.226562 157.261719 202.226562 L 174.539062 202.226562 C 176.925781 202.226562 178.855469 204.15625 178.855469 206.546875 C 178.855469 208.933594 176.925781 210.863281 174.539062 210.863281 Z M 174.539062 210.863281 " fill-opacity="1" fill-rule="nonzero"/><path fill="#ffde59" d="M 187.484375 223.8125 C 185.097656 223.8125 183.167969 221.882812 183.167969 219.492188 C 183.167969 214.734375 179.296875 210.863281 174.539062 210.863281 C 172.148438 210.863281 170.21875 208.933594 170.21875 206.546875 C 170.21875 204.15625 172.148438 202.226562 174.539062 202.226562 C 184.058594 202.226562 191.804688 209.972656 191.804688 219.492188 C 191.804688 221.882812 189.875 223.8125 187.484375 223.8125 Z M 187.484375 223.8125 " fill-opacity="1" fill-rule="nonzero"/><path fill="#ffde59" d="M 157.261719 206.546875 L 109.753906 206.546875 C 107.367188 206.546875 105.433594 204.613281 105.433594 202.226562 C 105.433594 199.839844 107.367188 197.90625 109.753906 197.90625 L 157.261719 197.90625 C 159.652344 197.90625 161.582031 199.839844 161.582031 202.226562 C 161.582031 204.613281 159.652344 206.546875 157.261719 206.546875 Z M 157.261719 206.546875 " fill-opacity="1" fill-rule="nonzero"/><g clip-path="url(#6b574dcbba)"><path fill="#ffde59" d="M 92.488281 223.8125 C 90.097656 223.8125 88.167969 221.882812 88.167969 219.492188 C 88.167969 207.585938 97.851562 197.902344 109.753906 197.902344 C 112.140625 197.902344 114.074219 199.832031 114.074219 202.222656 C 114.074219 204.609375 112.140625 206.539062 109.753906 206.539062 C 102.613281 206.539062 96.804688 212.355469 96.804688 219.492188 C 96.804688 221.882812 94.875 223.8125 92.488281 223.8125 Z M 92.488281 223.8125 " fill-opacity="1" fill-rule="nonzero"/></g><g clip-path="url(#6e111fa479)"><path fill="#ffde59" d="M 118.410156 267.011719 C 101.734375 267.011719 88.167969 253.445312 88.167969 236.769531 C 88.167969 234.378906 90.097656 232.449219 92.488281 232.449219 C 94.875 232.449219 96.804688 234.378906 96.804688 236.769531 C 96.804688 248.679688 106.496094 258.371094 118.410156 258.371094 C 120.796875 258.371094 122.726562 260.304688 122.726562 262.691406 C 122.726562 265.078125 120.796875 267.011719 118.410156 267.011719 Z M 118.410156 267.011719 " fill-opacity="1" fill-rule="nonzero"/></g><g clip-path="url(#f0348eb1fa)"><path fill="#ffde59" d="M 92.488281 241.089844 C 90.097656 241.089844 88.167969 239.15625 88.167969 236.769531 L 88.167969 219.492188 C 88.167969 217.105469 90.097656 215.175781 92.488281 215.175781 C 94.875 215.175781 96.804688 217.105469 96.804688 219.492188 L 96.804688 236.769531 C 96.804688 239.15625 94.875 241.089844 92.488281 241.089844 Z M 92.488281 241.089844 " fill-opacity="1" fill-rule="nonzero"/></g><path fill="#ffde59" d="M 174.539062 267.011719 L 118.410156 267.011719 C 116.019531 267.011719 114.089844 265.078125 114.089844 262.691406 C 114.089844 260.304688 116.019531 258.371094 118.410156 258.371094 L 174.539062 258.371094 C 176.925781 258.371094 178.855469 260.304688 178.855469 262.691406 C 178.855469 265.078125 176.925781 267.011719 174.539062 267.011719 Z M 174.539062 267.011719 " fill-opacity="1" fill-rule="nonzero"/><path fill="#ffde59" d="M 174.539062 267.011719 C 172.148438 267.011719 170.21875 265.078125 170.21875 262.691406 C 170.21875 260.304688 172.148438 258.371094 174.539062 258.371094 C 179.300781 258.371094 183.175781 254.5 183.175781 249.734375 C 183.175781 247.347656 185.105469 245.414062 187.496094 245.414062 C 189.882812 245.414062 191.8125 247.347656 191.8125 249.734375 C 191.8125 259.261719 184.066406 267.011719 174.539062 267.011719 Z M 174.539062 267.011719 " fill-opacity="1" fill-rule="nonzero"/><path fill="#ffde59" d="M 217.726562 210.871094 C 215.339844 210.871094 213.410156 208.941406 213.410156 206.554688 L 213.410156 181.796875 C 213.410156 179.410156 215.339844 177.480469 217.726562 177.480469 C 220.117188 177.480469 222.046875 179.410156 222.046875 181.796875 L 222.046875 206.554688 C 222.046875 208.9375 220.117188 210.871094 217.726562 210.871094 Z M 217.726562 210.871094 " fill-opacity="1" fill-rule="nonzero"/><path fill="#ffde59" d="M 217.726562 210.863281 L 200.453125 210.863281 C 198.0625 210.863281 196.132812 208.933594 196.132812 206.546875 C 196.132812 204.15625 198.0625 202.226562 200.453125 202.226562 L 217.726562 202.226562 C 220.117188 202.226562 222.046875 204.15625 222.046875 206.546875 C 222.046875 208.933594 220.117188 210.863281 217.726562 210.863281 Z M 217.726562 210.863281 " fill-opacity="1" fill-rule="nonzero"/><path fill="#ffde59" d="M 187.546875 223.769531 C 185.15625 223.769531 183.226562 221.839844 183.226562 219.449219 C 183.226562 209.953125 190.953125 202.226562 200.453125 202.226562 C 202.839844 202.226562 204.769531 204.15625 204.769531 206.546875 C 204.769531 208.933594 202.839844 210.863281 200.453125 210.863281 C 195.714844 210.863281 191.867188 214.714844 191.867188 219.449219 C 191.867188 221.839844 189.929688 223.769531 187.546875 223.769531 Z M 187.546875 223.769531 " fill-opacity="1" fill-rule="nonzero"/><path fill="#ffde59" d="M 265.234375 206.546875 L 217.726562 206.546875 C 215.339844 206.546875 213.410156 204.613281 213.410156 202.226562 C 213.410156 199.839844 215.339844 197.90625 217.726562 197.90625 L 265.234375 197.90625 C 267.625 197.90625 269.554688 199.839844 269.554688 202.226562 C 269.554688 204.613281 267.625 206.546875 265.234375 206.546875 Z M 265.234375 206.546875 " fill-opacity="1" fill-rule="nonzero"/><g clip-path="url(#9324e48060)"><path fill="#ffde59" d="M 282.503906 223.8125 C 280.113281 223.8125 278.183594 221.882812 278.183594 219.492188 C 278.183594 212.355469 272.375 206.539062 265.234375 206.539062 C 262.847656 206.539062 260.917969 204.609375 260.917969 202.222656 C 260.917969 199.832031 262.847656 197.902344 265.234375 197.902344 C 277.136719 197.902344 286.820312 207.585938 286.820312 219.492188 C 286.820312 221.882812 284.890625 223.8125 282.503906 223.8125 Z M 282.503906 223.8125 " fill-opacity="1" fill-rule="nonzero"/></g><g clip-path="url(#af4b068e88)"><path fill="#ffde59" d="M 256.582031 267.011719 C 254.191406 267.011719 252.261719 265.078125 252.261719 262.691406 C 252.261719 260.304688 254.191406 258.371094 256.582031 258.371094 C 268.492188 258.371094 278.183594 248.679688 278.183594 236.769531 C 278.183594 234.378906 280.113281 232.449219 282.503906 232.449219 C 284.890625 232.449219 286.820312 234.378906 286.820312 236.769531 C 286.820312 253.445312 273.253906 267.011719 256.582031 267.011719 Z M 256.582031 267.011719 " fill-opacity="1" fill-rule="nonzero"/></g><g clip-path="url(#78a0cfbef0)"><path fill="#ffde59" d="M 282.503906 241.089844 C 280.113281 241.089844 278.183594 239.15625 278.183594 236.769531 L 278.183594 219.492188 C 278.183594 217.105469 280.113281 215.175781 282.503906 215.175781 C 284.890625 215.175781 286.820312 217.105469 286.820312 219.492188 L 286.820312 236.769531 C 286.820312 239.15625 284.890625 241.089844 282.503906 241.089844 Z M 282.503906 241.089844 " fill-opacity="1" fill-rule="nonzero"/></g><path fill="#ffde59" d="M 256.582031 267.011719 L 200.453125 267.011719 C 198.0625 267.011719 196.132812 265.078125 196.132812 262.691406 C 196.132812 260.304688 198.0625 258.371094 200.453125 258.371094 L 256.582031 258.371094 C 258.96875 258.371094 260.898438 260.304688 260.898438 262.691406 C 260.898438 265.078125 258.96875 267.011719 256.582031 267.011719 Z M 256.582031 267.011719 " fill-opacity="1" fill-rule="nonzero"/><path fill="#ffde59" d="M 200.453125 267.011719 C 190.925781 267.011719 183.175781 259.261719 183.175781 249.734375 C 183.175781 247.347656 185.105469 245.414062 187.496094 245.414062 C 189.882812 245.414062 191.8125 247.347656 191.8125 249.734375 C 191.8125 254.5 195.6875 258.371094 200.453125 258.371094 C 202.839844 258.371094 204.769531 260.304688 204.769531 262.691406 C 204.769531 265.078125 202.839844 267.011719 200.453125 267.011719 Z M 200.453125 267.011719 " fill-opacity="1" fill-rule="nonzero"/><path fill="#ffde59" d="M 101.246094 254 C 98.855469 254 96.90625 252.070312 96.90625 249.683594 C 96.90625 247.292969 98.8125 245.363281 101.199219 245.363281 L 101.246094 245.363281 C 103.628906 245.363281 105.566406 247.292969 105.566406 249.683594 C 105.566406 252.070312 103.628906 254 101.246094 254 Z M 101.246094 254 " fill-opacity="1" fill-rule="nonzero"/><path fill="#ffde59" d="M 101.246094 219.449219 C 98.855469 219.449219 96.90625 217.519531 96.90625 215.132812 C 96.90625 212.742188 98.8125 210.8125 101.199219 210.8125 L 101.246094 210.8125 C 103.628906 210.8125 105.566406 212.742188 105.566406 215.132812 C 105.566406 217.519531 103.628906 219.449219 101.246094 219.449219 Z M 101.246094 219.449219 " fill-opacity="1" fill-rule="nonzero"/><path fill="#ffde59" d="M 118.519531 236.726562 C 116.132812 236.726562 114.179688 234.796875 114.179688 232.40625 C 114.179688 230.019531 116.089844 228.089844 118.472656 228.089844 L 118.519531 228.089844 C 120.90625 228.089844 122.839844 230.019531 122.839844 232.40625 C 122.839844 234.796875 120.90625 236.726562 118.519531 236.726562 Z M 118.519531 236.726562 " fill-opacity="1" fill-rule="nonzero"/><path fill="#ffde59" d="M 135.796875 254 C 133.410156 254 131.457031 252.070312 131.457031 249.683594 C 131.457031 247.292969 133.367188 245.363281 135.75 245.363281 L 135.796875 245.363281 C 138.179688 245.363281 140.117188 247.292969 140.117188 249.683594 C 140.117188 252.070312 138.179688 254 135.796875 254 Z M 135.796875 254 " fill-opacity="1" fill-rule="nonzero"/><path fill="#ffde59" d="M 135.796875 219.449219 C 133.410156 219.449219 131.457031 217.519531 131.457031 215.132812 C 131.457031 212.742188 133.367188 210.8125 135.75 210.8125 L 135.796875 210.8125 C 138.179688 210.8125 140.117188 212.742188 140.117188 215.132812 C 140.117188 217.519531 138.179688 219.449219 135.796875 219.449219 Z M 135.796875 219.449219 " fill-opacity="1" fill-rule="nonzero"/><path fill="#ffde59" d="M 153.074219 236.726562 C 150.683594 236.726562 148.730469 234.796875 148.730469 232.40625 C 148.730469 230.019531 150.640625 228.089844 153.023438 228.089844 L 153.074219 228.089844 C 155.457031 228.089844 157.390625 230.019531 157.390625 232.40625 C 157.390625 234.796875 155.457031 236.726562 153.074219 236.726562 Z M 153.074219 236.726562 " fill-opacity="1" fill-rule="nonzero"/><path fill="#ffde59" d="M 170.347656 254 C 167.960938 254 166.007812 252.070312 166.007812 249.683594 C 166.007812 247.292969 167.917969 245.363281 170.300781 245.363281 L 170.347656 245.363281 C 172.734375 245.363281 174.667969 247.292969 174.667969 249.683594 C 174.667969 252.070312 172.734375 254 170.347656 254 Z M 170.347656 254 " fill-opacity="1" fill-rule="nonzero"/><path fill="#ffde59" d="M 170.347656 219.449219 C 167.960938 219.449219 166.007812 217.519531 166.007812 215.132812 C 166.007812 212.742188 167.917969 210.8125 170.300781 210.8125 L 170.347656 210.8125 C 172.734375 210.8125 174.667969 212.742188 174.667969 215.132812 C 174.667969 217.519531 172.734375 219.449219 170.347656 219.449219 Z M 170.347656 219.449219 " fill-opacity="1" fill-rule="nonzero"/><path fill="#ffde59" d="M 187.625 236.726562 C 185.234375 236.726562 183.285156 234.796875 183.285156 232.40625 C 183.285156 230.019531 185.191406 228.089844 187.578125 228.089844 L 187.625 228.089844 C 190.007812 228.089844 191.941406 230.019531 191.941406 232.40625 C 191.941406 234.796875 190.007812 236.726562 187.625 236.726562 Z M 187.625 236.726562 " fill-opacity="1" fill-rule="nonzero"/><path fill="#ffde59" d="M 204.898438 254 C 202.511719 254 200.558594 252.070312 200.558594 249.683594 C 200.558594 247.292969 202.46875 245.363281 204.851562 245.363281 L 204.898438 245.363281 C 207.285156 245.363281 209.21875 247.292969 209.21875 249.683594 C 209.21875 252.070312 207.285156 254 204.898438 254 Z M 204.898438 254 " fill-opacity="1" fill-rule="nonzero"/><path fill="#ffde59" d="M 204.898438 219.449219 C 202.511719 219.449219 200.558594 217.519531 200.558594 215.132812 C 200.558594 212.742188 202.46875 210.8125 204.851562 210.8125 L 204.898438 210.8125 C 207.285156 210.8125 209.21875 212.742188 209.21875 215.132812 C 209.21875 217.519531 207.285156 219.449219 204.898438 219.449219 Z M 204.898438 219.449219 " fill-opacity="1" fill-rule="nonzero"/><path fill="#ffde59" d="M 222.175781 236.726562 C 219.789062 236.726562 217.835938 234.796875 217.835938 232.40625 C 217.835938 230.019531 219.746094 228.089844 222.128906 228.089844 L 222.175781 228.089844 C 224.558594 228.089844 226.496094 230.019531 226.496094 232.40625 C 226.496094 234.796875 224.558594 236.726562 222.175781 236.726562 Z M 222.175781 236.726562 " fill-opacity="1" fill-rule="nonzero"/><path fill="#ffde59" d="M 239.453125 254 C 237.0625 254 235.109375 252.070312 235.109375 249.683594 C 235.109375 247.292969 237.019531 245.363281 239.402344 245.363281 L 239.453125 245.363281 C 241.835938 245.363281 243.769531 247.292969 243.769531 249.683594 C 243.769531 252.070312 241.835938 254 239.453125 254 Z M 239.453125 254 " fill-opacity="1" fill-rule="nonzero"/><path fill="#ffde59" d="M 239.453125 219.449219 C 237.0625 219.449219 235.109375 217.519531 235.109375 215.132812 C 235.109375 212.742188 237.019531 210.8125 239.402344 210.8125 L 239.453125 210.8125 C 241.835938 210.8125 243.769531 212.742188 243.769531 215.132812 C 243.769531 217.519531 241.835938 219.449219 239.453125 219.449219 Z M 239.453125 219.449219 " fill-opacity="1" fill-rule="nonzero"/><path fill="#ffde59" d="M 256.726562 236.726562 C 254.339844 236.726562 252.386719 234.796875 252.386719 232.40625 C 252.386719 230.019531 254.296875 228.089844 256.679688 228.089844 L 256.726562 228.089844 C 259.109375 228.089844 261.046875 230.019531 261.046875 232.40625 C 261.046875 234.796875 259.109375 236.726562 256.726562 236.726562 Z M 256.726562 236.726562 " fill-opacity="1" fill-rule="nonzero"/><path fill="#ffde59" d="M 274.003906 254 C 271.613281 254 269.664062 252.070312 269.664062 249.683594 C 269.664062 247.292969 271.570312 245.363281 273.957031 245.363281 L 274.003906 245.363281 C 276.386719 245.363281 278.320312 247.292969 278.320312 249.683594 C 278.320312 252.070312 276.386719 254 274.003906 254 Z M 274.003906 254 " fill-opacity="1" fill-rule="nonzero"/><path fill="#ffde59" d="M 274.003906 219.449219 C 271.613281 219.449219 269.664062 217.519531 269.664062 215.132812 C 269.664062 212.742188 271.570312 210.8125 273.957031 210.8125 L 274.003906 210.8125 C 276.386719 210.8125 278.320312 212.742188 278.320312 215.132812 C 278.320312 217.519531 276.386719 219.449219 274.003906 219.449219 Z M 274.003906 219.449219 " fill-opacity="1" fill-rule="nonzero"/><g fill="#ffde59" fill-opacity="1"><g transform="translate(91.198578, 328.29997)"><g><path d="M 2.125 -18.703125 C 2.351562 -18.722656 2.832031 -18.734375 3.5625 -18.734375 C 4.039062 -18.734375 4.328125 -18.71875 4.421875 -18.6875 C 4.515625 -18.65625 4.570312 -18.578125 4.59375 -18.453125 C 4.613281 -18.316406 4.640625 -18.242188 4.671875 -18.234375 C 4.710938 -18.234375 4.75 -18.234375 4.78125 -18.234375 C 4.875 -18.234375 5.007812 -18.238281 5.1875 -18.25 C 6.25 -18.40625 7.21875 -18.484375 8.09375 -18.484375 C 10.007812 -18.484375 11.460938 -18.117188 12.453125 -17.390625 C 12.773438 -17.148438 13.035156 -16.890625 13.234375 -16.609375 C 13.441406 -16.328125 13.660156 -15.929688 13.890625 -15.421875 C 14.015625 -15.109375 14.09375 -14.84375 14.125 -14.625 C 14.15625 -14.414062 14.171875 -13.984375 14.171875 -13.328125 C 14.171875 -12.742188 14.15625 -12.320312 14.125 -12.0625 C 14.09375 -11.800781 14.023438 -11.523438 13.921875 -11.234375 C 13.742188 -10.785156 13.4375 -10.296875 13 -9.765625 C 12.5625 -9.242188 12.140625 -8.863281 11.734375 -8.625 C 11.566406 -8.53125 11.4375 -8.441406 11.34375 -8.359375 C 11.25 -8.273438 11.203125 -8.203125 11.203125 -8.140625 C 11.203125 -8.128906 11.203125 -8.125 11.203125 -8.125 C 11.222656 -8.03125 11.503906 -7.546875 12.046875 -6.671875 C 12.597656 -5.804688 13.15625 -4.90625 13.71875 -3.96875 C 14.3125 -2.976562 14.609375 -2.457031 14.609375 -2.40625 C 14.609375 -2.332031 14.285156 -2.023438 13.640625 -1.484375 C 13.003906 -0.941406 12.617188 -0.648438 12.484375 -0.609375 C 12.410156 -0.609375 12.257812 -0.78125 12.03125 -1.125 C 11.8125 -1.476562 11.570312 -1.867188 11.3125 -2.296875 C 10.71875 -3.265625 9.960938 -4.441406 9.046875 -5.828125 L 7.8125 -7.703125 L 4.59375 -7.703125 L 4.734375 -0.953125 L 1.734375 -0.953125 L 1.703125 -5.515625 C 1.703125 -8.253906 1.695312 -11.210938 1.6875 -14.390625 L 1.6875 -18.640625 Z M 9.75 -15.203125 C 9.394531 -15.316406 8.726562 -15.375 7.75 -15.375 C 7.207031 -15.375 6.566406 -15.351562 5.828125 -15.3125 C 5.828125 -15.3125 5.816406 -15.3125 5.796875 -15.3125 C 5.773438 -15.3125 5.765625 -15.3125 5.765625 -15.3125 L 5.734375 -15.3125 C 5.734375 -15.3125 5.726562 -15.3125 5.71875 -15.3125 L 5.578125 -15.3125 C 5.554688 -15.3125 5.546875 -15.3125 5.546875 -15.3125 C 5.054688 -15.289062 4.78125 -15.210938 4.71875 -15.078125 C 4.65625 -14.941406 4.625 -14.570312 4.625 -13.96875 C 4.625 -13.820312 4.625 -13.664062 4.625 -13.5 C 4.625 -13.476562 4.625 -13.46875 4.625 -13.46875 L 4.625 -13.4375 C 4.625 -13.414062 4.625 -13.40625 4.625 -13.40625 L 4.625 -13.359375 C 4.625 -13.359375 4.625 -13.347656 4.625 -13.328125 C 4.625 -13.304688 4.625 -13.285156 4.625 -13.265625 L 4.625 -13.21875 C 4.625 -13.195312 4.625 -13.1875 4.625 -13.1875 L 4.625 -10.75 L 6.921875 -10.8125 C 7.847656 -10.832031 8.492188 -10.851562 8.859375 -10.875 C 9.222656 -10.90625 9.507812 -10.976562 9.71875 -11.09375 C 10.195312 -11.28125 10.5625 -11.570312 10.8125 -11.96875 C 11.070312 -12.375 11.203125 -12.78125 11.203125 -13.1875 C 11.203125 -13.59375 11.078125 -13.992188 10.828125 -14.390625 C 10.585938 -14.785156 10.226562 -15.054688 9.75 -15.203125 Z M 9.75 -15.203125 "/></g></g></g><g fill="#ffde59" fill-opacity="1"><g transform="translate(106.484504, 328.29997)"><g><path d="M 1.734375 -10.4375 L 1.6875 -18.390625 L 12.1875 -18.390625 L 12.1875 -15.703125 L 11.03125 -15.625 C 10.625 -15.582031 10.007812 -15.5625 9.1875 -15.5625 C 8.644531 -15.5625 8.007812 -15.570312 7.28125 -15.59375 L 4.625 -15.625 L 4.625 -11.171875 L 6.390625 -11.171875 C 7.640625 -11.171875 8.796875 -11.144531 9.859375 -11.09375 L 11.515625 -11.03125 L 11.515625 -8.3125 L 4.734375 -8.3125 L 4.734375 -4.0625 L 7.921875 -4.0625 C 10.066406 -4.0625 11.382812 -4.03125 11.875 -3.96875 L 12.59375 -3.921875 L 12.59375 -2.578125 C 12.59375 -1.679688 12.566406 -1.203125 12.515625 -1.140625 C 12.492188 -1.140625 12.28125 -1.140625 11.875 -1.140625 C 11.050781 -1.140625 9.472656 -1.148438 7.140625 -1.171875 L 1.90625 -1.234375 L 1.84375 -2.015625 C 1.8125 -2.421875 1.773438 -5.226562 1.734375 -10.4375 Z M 1.734375 -10.4375 "/></g></g></g><g fill="#ffde59" fill-opacity="1"><g transform="translate(120.034672, 328.29997)"><g><path d="M 13.109375 -18.53125 L 13.4375 -18.953125 L 14.59375 -17.921875 C 15.050781 -17.492188 15.332031 -17.21875 15.4375 -17.09375 C 15.539062 -16.96875 15.59375 -16.867188 15.59375 -16.796875 C 15.59375 -16.773438 15.582031 -16.75 15.5625 -16.71875 C 15.550781 -16.675781 15.457031 -16.546875 15.28125 -16.328125 C 15.113281 -16.117188 14.867188 -15.800781 14.546875 -15.375 C 14.222656 -14.957031 13.925781 -14.582031 13.65625 -14.25 C 11.144531 -11.15625 9.753906 -9.484375 9.484375 -9.234375 C 9.398438 -9.140625 9.359375 -7.703125 9.359375 -4.921875 L 9.359375 -0.984375 L 6.390625 -0.984375 L 6.546875 -9.234375 L 3.75 -12.734375 C 1.957031 -14.972656 0.957031 -16.195312 0.75 -16.40625 L 0.421875 -16.765625 L 1.484375 -17.78125 C 2.171875 -18.445312 2.550781 -18.800781 2.625 -18.84375 C 2.707031 -18.84375 3.578125 -17.734375 5.234375 -15.515625 C 5.703125 -14.910156 6.132812 -14.347656 6.53125 -13.828125 C 6.9375 -13.304688 7.28125 -12.90625 7.5625 -12.625 C 7.84375 -12.34375 8.007812 -12.203125 8.0625 -12.203125 C 8.101562 -12.203125 8.878906 -13.148438 10.390625 -15.046875 C 11.898438 -16.941406 12.804688 -18.101562 13.109375 -18.53125 Z M 13.109375 -18.53125 "/></g></g></g><g fill="#ffde59" fill-opacity="1"><g transform="translate(136.160492, 328.29997)"><g/></g></g><g fill="#ffde59" fill-opacity="1"><g transform="translate(144.727341, 328.29997)"><g><path d="M 1.734375 -15.703125 L 1.6875 -18.703125 L 2.765625 -18.703125 C 3.796875 -18.679688 5.222656 -18.597656 7.046875 -18.453125 C 8.878906 -18.316406 9.972656 -18.203125 10.328125 -18.109375 C 11.410156 -17.796875 12.328125 -17.195312 13.078125 -16.3125 C 13.835938 -15.425781 14.378906 -14.289062 14.703125 -12.90625 C 14.828125 -12.332031 14.890625 -11.414062 14.890625 -10.15625 C 14.890625 -8.894531 14.828125 -7.9375 14.703125 -7.28125 C 14.472656 -6.25 14.113281 -5.3125 13.625 -4.46875 C 13.144531 -3.632812 12.550781 -2.945312 11.84375 -2.40625 C 11.320312 -2 10.804688 -1.695312 10.296875 -1.5 C 9.796875 -1.300781 9.164062 -1.164062 8.40625 -1.09375 C 7.65625 -1.019531 6.535156 -0.984375 5.046875 -0.984375 L 2.078125 -0.984375 L 1.984375 -2.90625 C 1.953125 -4.195312 1.914062 -6.148438 1.875 -8.765625 C 1.820312 -11.265625 1.773438 -13.578125 1.734375 -15.703125 Z M 9.65625 -15.375 C 9.28125 -15.519531 8.347656 -15.628906 6.859375 -15.703125 L 4.625 -15.8125 L 4.703125 -11.640625 C 4.742188 -9.347656 4.789062 -7.34375 4.84375 -5.625 L 4.90625 -3.71875 L 6.71875 -3.78125 C 7.914062 -3.78125 8.726562 -3.863281 9.15625 -4.03125 C 10.382812 -4.550781 11.222656 -5.613281 11.671875 -7.21875 C 11.828125 -7.75 11.914062 -8.359375 11.9375 -9.046875 C 11.96875 -9.734375 11.984375 -10.207031 11.984375 -10.46875 C 11.984375 -11.125 11.945312 -11.640625 11.875 -12.015625 C 11.71875 -12.835938 11.4375 -13.546875 11.03125 -14.140625 C 10.632812 -14.734375 10.175781 -15.144531 9.65625 -15.375 Z M 9.65625 -15.375 "/></g></g></g><g fill="#ffde59" fill-opacity="1"><g transform="translate(160.853164, 328.29997)"><g><path d="M 1.734375 -10.4375 L 1.6875 -18.390625 L 12.1875 -18.390625 L 12.1875 -15.703125 L 11.03125 -15.625 C 10.625 -15.582031 10.007812 -15.5625 9.1875 -15.5625 C 8.644531 -15.5625 8.007812 -15.570312 7.28125 -15.59375 L 4.625 -15.625 L 4.625 -11.171875 L 6.390625 -11.171875 C 7.640625 -11.171875 8.796875 -11.144531 9.859375 -11.09375 L 11.515625 -11.03125 L 11.515625 -8.3125 L 4.734375 -8.3125 L 4.734375 -4.0625 L 7.921875 -4.0625 C 10.066406 -4.0625 11.382812 -4.03125 11.875 -3.96875 L 12.59375 -3.921875 L 12.59375 -2.578125 C 12.59375 -1.679688 12.566406 -1.203125 12.515625 -1.140625 C 12.492188 -1.140625 12.28125 -1.140625 11.875 -1.140625 C 11.050781 -1.140625 9.472656 -1.148438 7.140625 -1.171875 L 1.90625 -1.234375 L 1.84375 -2.015625 C 1.8125 -2.421875 1.773438 -5.226562 1.734375 -10.4375 Z M 1.734375 -10.4375 "/></g></g></g><g fill="#ffde59" fill-opacity="1"><g transform="translate(174.403335, 328.29997)"><g><path d="M 1.6875 -10.578125 L 1.6875 -18.53125 L 4.5625 -18.53125 L 4.625 -16.265625 C 4.675781 -14.898438 4.703125 -12.800781 4.703125 -9.96875 L 4.703125 -4.3125 L 11.734375 -4.25 L 11.8125 -1.265625 L 1.703125 -1.265625 Z M 1.6875 -10.578125 "/></g></g></g><g fill="#ffde59" fill-opacity="1"><g transform="translate(186.609694, 328.29997)"><g/></g></g><g fill="#ffde59" fill-opacity="1"><g transform="translate(195.176546, 328.29997)"><g><path d="M 7.671875 -18.484375 C 8.234375 -18.585938 8.8125 -18.640625 9.40625 -18.640625 C 10 -18.640625 10.625 -18.585938 11.28125 -18.484375 C 11.800781 -18.390625 12.382812 -18.238281 13.03125 -18.03125 C 13.675781 -17.820312 14.046875 -17.664062 14.140625 -17.5625 C 14.160156 -17.5625 14.171875 -17.519531 14.171875 -17.4375 C 14.171875 -17.3125 14.117188 -17.007812 14.015625 -16.53125 C 13.910156 -16.050781 13.789062 -15.609375 13.65625 -15.203125 L 13.546875 -14.8125 L 12.9375 -15.03125 C 12.09375 -15.332031 11.304688 -15.535156 10.578125 -15.640625 C 9.847656 -15.742188 9.304688 -15.796875 8.953125 -15.796875 C 8.472656 -15.796875 8.054688 -15.738281 7.703125 -15.625 C 6.148438 -15.175781 5.039062 -14.113281 4.375 -12.4375 C 4.195312 -11.988281 4.085938 -11.640625 4.046875 -11.390625 C 4.015625 -11.148438 4 -10.738281 4 -10.15625 C 3.976562 -9.914062 3.96875 -9.6875 3.96875 -9.46875 C 3.96875 -8.570312 4.070312 -7.765625 4.28125 -7.046875 C 4.488281 -6.335938 4.832031 -5.71875 5.3125 -5.1875 C 5.875 -4.582031 6.46875 -4.164062 7.09375 -3.9375 C 7.71875 -3.71875 8.414062 -3.609375 9.1875 -3.609375 C 9.40625 -3.609375 9.640625 -3.617188 9.890625 -3.640625 C 10.722656 -3.710938 11.515625 -3.851562 12.265625 -4.0625 C 12.429688 -4.113281 12.625 -4.171875 12.84375 -4.234375 C 13.070312 -4.304688 13.25 -4.363281 13.375 -4.40625 C 13.507812 -4.457031 13.597656 -4.492188 13.640625 -4.515625 C 13.648438 -4.515625 13.65625 -4.515625 13.65625 -4.515625 C 13.738281 -4.515625 13.8125 -4.429688 13.875 -4.265625 C 13.9375 -4.109375 14.023438 -3.816406 14.140625 -3.390625 C 14.304688 -2.640625 14.390625 -2.15625 14.390625 -1.9375 C 14.390625 -1.851562 14.378906 -1.804688 14.359375 -1.796875 C 14.265625 -1.703125 13.925781 -1.5625 13.34375 -1.375 C 12.769531 -1.1875 12.203125 -1.046875 11.640625 -0.953125 C 11.066406 -0.859375 10.347656 -0.8125 9.484375 -0.8125 C 9.335938 -0.8125 8.960938 -0.816406 8.359375 -0.828125 C 7.753906 -0.835938 7.179688 -0.914062 6.640625 -1.0625 C 5.628906 -1.363281 4.695312 -1.882812 3.84375 -2.625 C 3 -3.375 2.378906 -4.21875 1.984375 -5.15625 C 1.703125 -5.789062 1.503906 -6.367188 1.390625 -6.890625 C 1.285156 -7.410156 1.203125 -8.09375 1.140625 -8.9375 C 1.140625 -9.132812 1.140625 -9.328125 1.140625 -9.515625 C 1.140625 -10.503906 1.226562 -11.429688 1.40625 -12.296875 C 1.59375 -13.171875 1.945312 -14.035156 2.46875 -14.890625 C 3.582031 -16.796875 5.316406 -17.992188 7.671875 -18.484375 Z M 7.671875 -18.484375 "/></g></g></g><g fill="#ffde59" fill-opacity="1"><g transform="translate(210.574467, 328.29997)"><g><path d="M 7.3125 -18.59375 C 7.664062 -18.644531 8.09375 -18.671875 8.59375 -18.671875 C 8.78125 -18.671875 9.117188 -18.660156 9.609375 -18.640625 C 10.109375 -18.628906 10.609375 -18.554688 11.109375 -18.421875 C 12.378906 -18.066406 13.46875 -17.394531 14.375 -16.40625 C 15.28125 -15.414062 15.929688 -14.1875 16.328125 -12.71875 C 16.453125 -12.082031 16.519531 -11.421875 16.53125 -10.734375 C 16.539062 -10.054688 16.546875 -9.679688 16.546875 -9.609375 C 16.546875 -8.460938 16.484375 -7.582031 16.359375 -6.96875 C 16.109375 -6 15.726562 -5.117188 15.21875 -4.328125 C 14.71875 -3.535156 14.097656 -2.859375 13.359375 -2.296875 C 12.890625 -1.960938 12.457031 -1.703125 12.0625 -1.515625 C 11.675781 -1.328125 11.203125 -1.175781 10.640625 -1.0625 C 10.046875 -0.9375 9.457031 -0.875 8.875 -0.875 C 8.144531 -0.875 7.273438 -1.007812 6.265625 -1.28125 C 5.265625 -1.550781 4.34375 -2.101562 3.5 -2.9375 C 1.914062 -4.539062 1.125 -6.800781 1.125 -9.71875 C 1.125 -9.957031 1.128906 -10.207031 1.140625 -10.46875 C 1.203125 -12.164062 1.53125 -13.585938 2.125 -14.734375 C 3.207031 -16.816406 4.9375 -18.101562 7.3125 -18.59375 Z M 11.03125 -15.234375 C 10.71875 -15.398438 10.445312 -15.492188 10.21875 -15.515625 C 10 -15.546875 9.617188 -15.582031 9.078125 -15.625 C 8.421875 -15.625 7.90625 -15.582031 7.53125 -15.5 C 7.15625 -15.414062 6.742188 -15.242188 6.296875 -14.984375 C 5.921875 -14.753906 5.617188 -14.488281 5.390625 -14.1875 C 5.160156 -13.894531 4.941406 -13.523438 4.734375 -13.078125 C 4.335938 -12.179688 4.132812 -11.425781 4.125 -10.8125 C 4.113281 -10.195312 4.109375 -9.878906 4.109375 -9.859375 C 4.109375 -8.703125 4.296875 -7.632812 4.671875 -6.65625 C 4.804688 -6.195312 5.125 -5.695312 5.625 -5.15625 C 6.113281 -4.664062 6.578125 -4.34375 7.015625 -4.1875 C 7.453125 -4.03125 8.0625 -3.941406 8.84375 -3.921875 C 9.550781 -3.921875 10.128906 -4.003906 10.578125 -4.171875 C 11.023438 -4.335938 11.457031 -4.609375 11.875 -4.984375 C 12.488281 -5.566406 12.925781 -6.222656 13.1875 -6.953125 C 13.445312 -7.691406 13.578125 -8.628906 13.578125 -9.765625 C 13.578125 -11.171875 13.363281 -12.328125 12.9375 -13.234375 C 12.519531 -14.140625 11.882812 -14.804688 11.03125 -15.234375 Z M 11.03125 -15.234375 "/></g></g></g><g fill="#ffde59" fill-opacity="1"><g transform="translate(228.352062, 328.29997)"><g><path d="M 1.734375 -15.703125 L 1.6875 -18.703125 L 2.765625 -18.703125 C 3.796875 -18.679688 5.222656 -18.597656 7.046875 -18.453125 C 8.878906 -18.316406 9.972656 -18.203125 10.328125 -18.109375 C 11.410156 -17.796875 12.328125 -17.195312 13.078125 -16.3125 C 13.835938 -15.425781 14.378906 -14.289062 14.703125 -12.90625 C 14.828125 -12.332031 14.890625 -11.414062 14.890625 -10.15625 C 14.890625 -8.894531 14.828125 -7.9375 14.703125 -7.28125 C 14.472656 -6.25 14.113281 -5.3125 13.625 -4.46875 C 13.144531 -3.632812 12.550781 -2.945312 11.84375 -2.40625 C 11.320312 -2 10.804688 -1.695312 10.296875 -1.5 C 9.796875 -1.300781 9.164062 -1.164062 8.40625 -1.09375 C 7.65625 -1.019531 6.535156 -0.984375 5.046875 -0.984375 L 2.078125 -0.984375 L 1.984375 -2.90625 C 1.953125 -4.195312 1.914062 -6.148438 1.875 -8.765625 C 1.820312 -11.265625 1.773438 -13.578125 1.734375 -15.703125 Z M 9.65625 -15.375 C 9.28125 -15.519531 8.347656 -15.628906 6.859375 -15.703125 L 4.625 -15.8125 L 4.703125 -11.640625 C 4.742188 -9.347656 4.789062 -7.34375 4.84375 -5.625 L 4.90625 -3.71875 L 6.71875 -3.78125 C 7.914062 -3.78125 8.726562 -3.863281 9.15625 -4.03125 C 10.382812 -4.550781 11.222656 -5.613281 11.671875 -7.21875 C 11.828125 -7.75 11.914062 -8.359375 11.9375 -9.046875 C 11.96875 -9.734375 11.984375 -10.207031 11.984375 -10.46875 C 11.984375 -11.125 11.945312 -11.640625 11.875 -12.015625 C 11.71875 -12.835938 11.4375 -13.546875 11.03125 -14.140625 C 10.632812 -14.734375 10.175781 -15.144531 9.65625 -15.375 Z M 9.65625 -15.375 "/></g></g></g><g fill="#ffde59" fill-opacity="1"><g transform="translate(244.477885, 328.29997)"><g><path d="M 1.6875 -14.28125 L 1.6875 -18.59375 L 4.625 -18.59375 L 4.625 -14.75 C 4.625 -12.0625 4.648438 -9.132812 4.703125 -5.96875 L 4.765625 -0.984375 L 1.8125 -0.984375 L 1.765625 -5.453125 C 1.710938 -8.367188 1.6875 -11.3125 1.6875 -14.28125 Z M 1.6875 -14.28125 "/></g></g></g><g fill="#ffde59" fill-opacity="1"><g transform="translate(251.029009, 328.29997)"><g><path d="M 8.265625 -18.3125 C 8.804688 -18.382812 9.207031 -18.421875 9.46875 -18.421875 C 9.570312 -18.421875 9.664062 -18.410156 9.75 -18.390625 C 9.96875 -18.335938 10.441406 -18.289062 11.171875 -18.25 C 11.929688 -18.21875 12.53125 -18.15625 12.96875 -18.0625 L 13.75 -17.890625 L 13.71875 -17.296875 C 13.695312 -16.910156 13.648438 -16.375 13.578125 -15.6875 C 13.503906 -15.195312 13.457031 -14.914062 13.4375 -14.84375 C 13.414062 -14.769531 13.378906 -14.734375 13.328125 -14.734375 C 13.285156 -14.734375 13.25 -14.738281 13.21875 -14.75 C 12.769531 -14.84375 12.128906 -14.929688 11.296875 -15.015625 C 10.460938 -15.097656 9.796875 -15.140625 9.296875 -15.140625 C 9.179688 -15.140625 9.078125 -15.140625 8.984375 -15.140625 C 8.015625 -15.085938 7.238281 -14.925781 6.65625 -14.65625 C 6.082031 -14.382812 5.5625 -13.914062 5.09375 -13.25 C 4.757812 -12.78125 4.515625 -12.296875 4.359375 -11.796875 C 4.210938 -11.304688 4.125 -10.660156 4.09375 -9.859375 C 4.070312 -9.535156 4.0625 -9.265625 4.0625 -9.046875 C 4.0625 -8.878906 4.066406 -8.6875 4.078125 -8.46875 C 4.097656 -8.25 4.15625 -7.925781 4.25 -7.5 C 4.4375 -6.695312 4.679688 -6.082031 4.984375 -5.65625 C 5.285156 -5.226562 5.707031 -4.875 6.25 -4.59375 C 6.507812 -4.457031 6.734375 -4.367188 6.921875 -4.328125 C 7.117188 -4.296875 7.425781 -4.28125 7.84375 -4.28125 C 8.414062 -4.28125 8.914062 -4.351562 9.34375 -4.5 C 9.78125 -4.65625 10.238281 -4.921875 10.71875 -5.296875 L 11.34375 -5.765625 L 11.390625 -8.265625 L 7.609375 -8.171875 L 7.53125 -11.53125 L 10.8125 -11.515625 C 12.976562 -11.453125 14.066406 -11.40625 14.078125 -11.375 C 14.117188 -11.3125 14.140625 -9.441406 14.140625 -5.765625 L 14.109375 -0.78125 L 11.390625 -0.78125 L 11.390625 -1.5625 C 11.390625 -2.007812 11.363281 -2.234375 11.3125 -2.234375 C 10.394531 -1.734375 9.679688 -1.414062 9.171875 -1.28125 C 8.671875 -1.15625 8.144531 -1.09375 7.59375 -1.09375 C 7.4375 -1.09375 7.285156 -1.09375 7.140625 -1.09375 C 5.703125 -1.1875 4.476562 -1.695312 3.46875 -2.625 C 2.457031 -3.5625 1.757812 -4.832031 1.375 -6.4375 C 1.257812 -6.925781 1.1875 -7.53125 1.15625 -8.25 C 1.132812 -8.96875 1.125 -9.472656 1.125 -9.765625 C 1.125 -10.390625 1.148438 -10.894531 1.203125 -11.28125 C 1.460938 -13.1875 2.160156 -14.765625 3.296875 -16.015625 C 3.921875 -16.703125 4.632812 -17.222656 5.4375 -17.578125 C 6.238281 -17.929688 7.179688 -18.175781 8.265625 -18.3125 Z M 8.265625 -18.3125 "/></g></g></g><g fill="#ffde59" fill-opacity="1"><g transform="translate(266.11897, 328.29997)"><g><path d="M 7.3125 -18.59375 C 7.664062 -18.644531 8.09375 -18.671875 8.59375 -18.671875 C 8.78125 -18.671875 9.117188 -18.660156 9.609375 -18.640625 C 10.109375 -18.628906 10.609375 -18.554688 11.109375 -18.421875 C 12.378906 -18.066406 13.46875 -17.394531 14.375 -16.40625 C 15.28125 -15.414062 15.929688 -14.1875 16.328125 -12.71875 C 16.453125 -12.082031 16.519531 -11.421875 16.53125 -10.734375 C 16.539062 -10.054688 16.546875 -9.679688 16.546875 -9.609375 C 16.546875 -8.460938 16.484375 -7.582031 16.359375 -6.96875 C 16.109375 -6 15.726562 -5.117188 15.21875 -4.328125 C 14.71875 -3.535156 14.097656 -2.859375 13.359375 -2.296875 C 12.890625 -1.960938 12.457031 -1.703125 12.0625 -1.515625 C 11.675781 -1.328125 11.203125 -1.175781 10.640625 -1.0625 C 10.046875 -0.9375 9.457031 -0.875 8.875 -0.875 C 8.144531 -0.875 7.273438 -1.007812 6.265625 -1.28125 C 5.265625 -1.550781 4.34375 -2.101562 3.5 -2.9375 C 1.914062 -4.539062 1.125 -6.800781 1.125 -9.71875 C 1.125 -9.957031 1.128906 -10.207031 1.140625 -10.46875 C 1.203125 -12.164062 1.53125 -13.585938 2.125 -14.734375 C 3.207031 -16.816406 4.9375 -18.101562 7.3125 -18.59375 Z M 11.03125 -15.234375 C 10.71875 -15.398438 10.445312 -15.492188 10.21875 -15.515625 C 10 -15.546875 9.617188 -15.582031 9.078125 -15.625 C 8.421875 -15.625 7.90625 -15.582031 7.53125 -15.5 C 7.15625 -15.414062 6.742188 -15.242188 6.296875 -14.984375 C 5.921875 -14.753906 5.617188 -14.488281 5.390625 -14.1875 C 5.160156 -13.894531 4.941406 -13.523438 4.734375 -13.078125 C 4.335938 -12.179688 4.132812 -11.425781 4.125 -10.8125 C 4.113281 -10.195312 4.109375 -9.878906 4.109375 -9.859375 C 4.109375 -8.703125 4.296875 -7.632812 4.671875 -6.65625 C 4.804688 -6.195312 5.125 -5.695312 5.625 -5.15625 C 6.113281 -4.664062 6.578125 -4.34375 7.015625 -4.1875 C 7.453125 -4.03125 8.0625 -3.941406 8.84375 -3.921875 C 9.550781 -3.921875 10.128906 -4.003906 10.578125 -4.171875 C 11.023438 -4.335938 11.457031 -4.609375 11.875 -4.984375 C 12.488281 -5.566406 12.925781 -6.222656 13.1875 -6.953125 C 13.445312 -7.691406 13.578125 -8.628906 13.578125 -9.765625 C 13.578125 -11.171875 13.363281 -12.328125 12.9375 -13.234375 C 12.519531 -14.140625 11.882812 -14.804688 11.03125 -15.234375 Z M 11.03125 -15.234375 "/></g></g></g></svg>